<?xml version="1.0" standalone="no"?>
<!DOCTYPE svg PUBLIC "-//W3C//DTD SVG 20010904//EN"
 "http://www.w3.org/TR/2001/REC-SVG-20010904/DTD/svg10.dtd">
<svg version="1.0" xmlns="http://www.w3.org/2000/svg"
 width="2170.000000pt" height="725.000000pt" viewBox="0 0 2170.000000 725.000000"
 preserveAspectRatio="xMidYMid meet">

<g transform="translate(0.000000,725.000000) scale(0.100000,-0.100000)"
stroke="none">
<path fill="#ff3b14" d="M14180 5886 c-161 -36 -282 -164 -311 -330 -28 -162 57 -333 202
-405 89 -45 156 -57 240 -44 136 22 244 101 303 223 29 60 31 73 31 170 0 93
-3 112 -27 163 -55 117 -166 203 -292 226 -71 13 -75 13 -146 -3z"/>
<path fill="#ff3b14" d="M8515 5706 c-82 -20 -145 -56 -207 -118 l-58 -58 -343 0 c-378 0
-410 -4 -519 -62 -94 -50 -156 -126 -233 -285 -102 -209 -577 -1194 -804
-1668 -129 -268 -214 -432 -234 -454 -86 -91 -215 -94 -306 -8 -25 24 -130
227 -412 795 -349 702 -383 768 -434 821 -77 81 -164 120 -283 128 -57 4 -101
1 -125 -6 -51 -17 -87 -63 -87 -111 0 -92 41 -127 161 -140 139 -14 136 -9
329 -396 91 -181 263 -529 384 -773 247 -502 260 -523 390 -586 213 -104 480
-38 609 150 8 11 122 243 255 515 132 272 302 621 378 775 75 154 201 413 280
575 158 328 191 375 284 419 54 26 58 26 331 29 316 4 304 7 332 -88 37 -123
142 -240 249 -276 55 -18 64 -37 54 -112 -5 -42 -411 -878 -896 -1847 l-95
-190 -127 -5 c-191 -7 -185 5 -180 -376 l3 -242 26 -26 26 -26 283 0 283 0 28
24 28 24 3 269 c2 294 1 302 -55 338 -18 11 -32 23 -33 26 0 3 204 417 454
920 250 503 461 938 470 968 9 30 16 87 16 127 0 97 9 117 67 145 165 79 267
287 229 468 -50 240 -288 394 -521 337z m195 -238 c66 -34 103 -93 108 -172 3
-49 0 -71 -16 -102 -77 -150 -265 -167 -357 -32 -49 71 -53 145 -13 223 50 95
178 133 278 83z m-1051 -2962 c8 -9 11 -51 9 -122 l-3 -109 -114 -3 c-85 -2
-117 1 -123 10 -9 15 -11 199 -2 222 8 22 215 24 233 2z"/>
<path fill="#ff3b14" d="M3690 5699 c-79 -15 -183 -74 -238 -134 -135 -148 -159 -343 -65
-529 53 -104 175 -192 303 -216 30 -6 60 -16 66 -23 6 -6 19 -46 29 -87 18
-79 23 -90 295 -650 183 -376 290 -600 290 -605 0 -1 -17 -5 -38 -9 -22 -3
-48 -16 -63 -32 l-24 -26 -3 -298 c-2 -256 -1 -304 13 -330 29 -57 47 -60 343
-60 218 0 272 -3 281 -14 6 -8 57 -105 112 -217 55 -112 150 -304 210 -426
121 -245 167 -320 233 -381 83 -76 205 -122 326 -122 l65 0 42 -54 c183 -237
563 -207 702 54 77 145 80 262 10 410 l-30 65 129 265 c71 146 256 521 411
834 154 312 281 569 281 571 0 19 384 776 401 791 48 44 93 64 144 65 106 1
165 49 165 135 0 105 -121 151 -285 109 -126 -33 -226 -117 -283 -238 -17 -34
-126 -255 -242 -492 -117 -236 -247 -502 -290 -590 -43 -88 -139 -286 -215
-440 -235 -480 -346 -708 -375 -771 -16 -34 -34 -65 -41 -69 -7 -5 -69 -9
-138 -9 -122 -1 -129 -2 -193 -34 -128 -63 -208 -170 -242 -324 -5 -24 -12
-28 -39 -28 -17 0 -50 9 -72 19 -75 35 -109 84 -240 350 -69 139 -125 254
-125 256 0 2 -67 140 -150 306 l-150 302 0 169 c0 247 -3 250 -210 258 l-135
5 -49 100 c-28 55 -109 224 -181 375 -72 151 -191 397 -264 547 -114 233 -134
280 -138 332 l-6 61 60 63 c67 69 104 134 126 221 17 62 35 82 82 91 17 4 179
5 360 3 322 -3 331 -4 382 -27 57 -25 127 -93 148 -144 7 -18 108 -224 223
-459 230 -468 248 -495 355 -542 230 -102 503 -24 611 173 49 90 50 99 55 486
l6 370 63 5 c94 8 92 0 92 282 l0 239 -25 24 -24 25 -234 0 c-222 0 -236 -1
-261 -21 l-26 -20 0 -243 c0 -286 -2 -278 92 -286 l63 -5 3 -320 c3 -350 0
-373 -51 -432 -39 -45 -82 -63 -147 -63 -90 0 -157 53 -203 160 -15 36 -105
223 -307 635 -124 256 -163 312 -257 374 -26 18 -76 40 -111 51 -60 19 -94 20
-513 20 l-449 0 -55 50 c-67 61 -152 105 -230 119 -67 12 -91 12 -155 0z m185
-265 c80 -42 131 -160 106 -243 -49 -165 -259 -216 -365 -90 -96 114 -65 272
67 339 52 26 134 24 192 -6z m894 -2208 c15 -18 24 -247 11 -281 l-10 -25
-149 0 c-82 0 -152 4 -156 9 -3 5 -8 66 -12 135 -9 180 -13 176 166 176 107 0
141 -3 150 -14z m1548 -1299 c48 -30 93 -111 93 -167 0 -86 -47 -160 -124
-196 -78 -36 -144 -29 -215 24 -37 28 -81 112 -81 157 0 79 47 156 119 196 52
28 152 22 208 -14z"/>
<path fill="#050826" d="M16548 4789 c-487 -51 -870 -243 -1109 -554 -99 -129 -197 -341 -222
-482 l-6 -31 102 -6 c56 -4 203 -13 327 -21 337 -22 308 -26 350 47 120 210
403 323 805 321 297 -1 503 -64 629 -191 85 -86 127 -185 142 -339 l7 -73
-579 0 c-577 0 -774 -7 -954 -36 -497 -77 -833 -330 -931 -699 -25 -95 -30
-282 -10 -385 77 -394 421 -673 946 -766 148 -26 344 -36 497 -24 408 31 704
155 949 400 l106 106 7 -135 c3 -74 6 -174 6 -223 l0 -88 378 2 377 3 -1 990
c0 970 -1 992 -22 1113 -112 633 -555 999 -1301 1072 -119 12 -380 11 -493 -1z
m982 -1929 c0 -25 -52 -134 -95 -201 -147 -227 -377 -371 -681 -425 -146 -25
-389 -23 -513 5 -260 58 -386 195 -337 363 40 139 205 230 466 257 125 12
1160 14 1160 1z"/>
<path fill="#050826" d="M9960 4733 c0 -4 50 -113 111 -242 188 -396 1178 -2504 1292 -2748
l62 -133 313 0 c191 0 312 4 312 10 0 5 142 310 316 677 423 894 543 1149 722
1528 44 94 121 258 172 365 51 107 124 263 162 345 39 83 77 162 84 178 l15
27 -443 0 -443 0 -102 -218 c-56 -119 -179 -381 -274 -582 -94 -201 -191 -408
-214 -460 -183 -399 -304 -655 -310 -655 -4 0 -66 126 -137 280 -196 425 -344
744 -531 1140 -93 198 -183 390 -199 428 l-31 67 -438 0 c-242 0 -439 -3 -439
-7z"/>
<path fill="#050826" d="M13860 3175 l0 -1565 395 0 395 0 0 1565 0 1565 -395 0 -395 0 0
-1565z"/>
</g>
</svg>
